<?xml version="1.0" encoding="UTF-8" standalone="no"?>
<!DOCTYPE svg PUBLIC "-//W3C//DTD SVG 1.1//EN"
 "http://www.w3.org/Graphics/SVG/1.1/DTD/svg11.dtd">
<!-- Generated by graphviz version 2.43.0 (0)
 -->
<!-- Title: snakemake_dag Pages: 1 -->
<svg width="373pt" height="1577pt"
 viewBox="0.00 0.00 373.00 1577.00" xmlns="http://www.w3.org/2000/svg" xmlns:xlink="http://www.w3.org/1999/xlink">
<g id="graph0" class="graph" transform="scale(1 1) rotate(0) translate(4 1573)">
<title>snakemake_dag</title>
<polygon fill="white" stroke="transparent" points="-4,4 -4,-1573 369,-1573 369,4 -4,4"/>
<!-- 0 -->
<g id="node1" class="node">
<title>0</title>
<path fill="none" stroke="#afd856" stroke-width="2" d="M231,-36C231,-36 134,-36 134,-36 128,-36 122,-30 122,-24 122,-24 122,-12 122,-12 122,-6 128,0 134,0 134,0 231,0 231,0 237,0 243,-6 243,-12 243,-12 243,-24 243,-24 243,-30 237,-36 231,-36"/>
<text text-anchor="middle" x="182.5" y="-15.5" font-family="sans" font-size="10.00">evaluate&#45;annotations</text>
</g>
<!-- 1 -->
<g id="node2" class="node">
<title>1</title>
<path fill="none" stroke="#afd856" stroke-width="2" d="M270.5,-108C270.5,-108 94.5,-108 94.5,-108 88.5,-108 82.5,-102 82.5,-96 82.5,-96 82.5,-84 82.5,-84 82.5,-78 88.5,-72 94.5,-72 94.5,-72 270.5,-72 270.5,-72 276.5,-72 282.5,-78 282.5,-84 282.5,-84 282.5,-96 282.5,-96 282.5,-102 276.5,-108 270.5,-108"/>
<text text-anchor="middle" x="182.5" y="-87.5" font-family="sans" font-size="10.00">get percentage of unannotated genes</text>
</g>
<!-- 1&#45;&gt;0 -->
<g id="edge1" class="edge">
<title>1&#45;&gt;0</title>
<path fill="none" stroke="grey" stroke-width="2" d="M182.5,-71.7C182.5,-63.98 182.5,-54.71 182.5,-46.11"/>
<polygon fill="grey" stroke="grey" stroke-width="2" points="186,-46.1 182.5,-36.1 179,-46.1 186,-46.1"/>
</g>
<!-- 2 -->
<g id="node3" class="node">
<title>2</title>
<path fill="none" stroke="#afd856" stroke-width="2" d="M312.5,-180C312.5,-180 52.5,-180 52.5,-180 46.5,-180 40.5,-174 40.5,-168 40.5,-168 40.5,-156 40.5,-156 40.5,-150 46.5,-144 52.5,-144 52.5,-144 312.5,-144 312.5,-144 318.5,-144 324.5,-150 324.5,-156 324.5,-156 324.5,-168 324.5,-168 324.5,-174 318.5,-180 312.5,-180"/>
<text text-anchor="middle" x="182.5" y="-159.5" font-family="sans" font-size="10.00">get ideel (https://github.com/mw55309/ideel) statistics</text>
</g>
<!-- 2&#45;&gt;1 -->
<g id="edge2" class="edge">
<title>2&#45;&gt;1</title>
<path fill="none" stroke="grey" stroke-width="2" d="M182.5,-143.7C182.5,-135.98 182.5,-126.71 182.5,-118.11"/>
<polygon fill="grey" stroke="grey" stroke-width="2" points="186,-118.1 182.5,-108.1 179,-118.1 186,-118.1"/>
</g>
<!-- 3 -->
<g id="node4" class="node">
<title>3</title>
<path fill="none" stroke="#afd856" stroke-width="2" d="M238,-252C238,-252 127,-252 127,-252 121,-252 115,-246 115,-240 115,-240 115,-228 115,-228 115,-222 121,-216 127,-216 127,-216 238,-216 238,-216 244,-216 250,-222 250,-228 250,-228 250,-240 250,-240 250,-246 244,-252 238,-252"/>
<text text-anchor="middle" x="182.5" y="-231.5" font-family="sans" font-size="10.00">get annotation statistics</text>
</g>
<!-- 3&#45;&gt;2 -->
<g id="edge3" class="edge">
<title>3&#45;&gt;2</title>
<path fill="none" stroke="grey" stroke-width="2" d="M182.5,-215.7C182.5,-207.98 182.5,-198.71 182.5,-190.11"/>
<polygon fill="grey" stroke="grey" stroke-width="2" points="186,-190.1 182.5,-180.1 179,-190.1 186,-190.1"/>
</g>
<!-- 4 -->
<g id="node5" class="node">
<title>4</title>
<path fill="none" stroke="#afd856" stroke-width="2" d="M335,-329C335,-329 30,-329 30,-329 24,-329 18,-323 18,-317 18,-317 18,-300 18,-300 18,-294 24,-288 30,-288 30,-288 335,-288 335,-288 341,-288 347,-294 347,-300 347,-300 347,-317 347,-317 347,-323 341,-329 335,-329"/>
<text text-anchor="middle" x="182.5" y="-317" font-family="sans" font-size="10.00">get MAKER gene name and UniProt gene symbol for adding </text>
<text text-anchor="middle" x="182.5" y="-306" font-family="sans" font-size="10.00">a Name= field to the GFF </text>
<text text-anchor="middle" x="182.5" y="-295" font-family="sans" font-size="10.00">using annie (http://genomeannotation.github.io/annie/) and GAG</text>
</g>
<!-- 4&#45;&gt;3 -->
<g id="edge4" class="edge">
<title>4&#45;&gt;3</title>
<path fill="none" stroke="grey" stroke-width="2" d="M182.5,-287.69C182.5,-279.91 182.5,-270.84 182.5,-262.45"/>
<polygon fill="grey" stroke="grey" stroke-width="2" points="186,-262.32 182.5,-252.32 179,-262.32 186,-262.32"/>
</g>
<!-- 5 -->
<g id="node6" class="node">
<title>5</title>
<path fill="none" stroke="#afd856" stroke-width="2" d="M305.5,-401C305.5,-401 59.5,-401 59.5,-401 53.5,-401 47.5,-395 47.5,-389 47.5,-389 47.5,-377 47.5,-377 47.5,-371 53.5,-365 59.5,-365 59.5,-365 305.5,-365 305.5,-365 311.5,-365 317.5,-371 317.5,-377 317.5,-377 317.5,-389 317.5,-389 317.5,-395 311.5,-401 305.5,-401"/>
<text text-anchor="middle" x="182.5" y="-386" font-family="sans" font-size="10.00">run GAG (https://genomeannotation.github.io/GAG/) </text>
<text text-anchor="middle" x="182.5" y="-375" font-family="sans" font-size="10.00">to make annotations in standard format</text>
</g>
<!-- 5&#45;&gt;4 -->
<g id="edge5" class="edge">
<title>5&#45;&gt;4</title>
<path fill="none" stroke="grey" stroke-width="2" d="M182.5,-364.82C182.5,-357.2 182.5,-348 182.5,-339.32"/>
<polygon fill="grey" stroke="grey" stroke-width="2" points="186,-339.12 182.5,-329.12 179,-339.12 186,-339.12"/>
</g>
<!-- 6 -->
<g id="node7" class="node">
<title>6</title>
<path fill="none" stroke="#afd856" stroke-width="2" d="M296.5,-473C296.5,-473 68.5,-473 68.5,-473 62.5,-473 56.5,-467 56.5,-461 56.5,-461 56.5,-449 56.5,-449 56.5,-443 62.5,-437 68.5,-437 68.5,-437 296.5,-437 296.5,-437 302.5,-437 308.5,-443 308.5,-449 308.5,-449 308.5,-461 308.5,-461 308.5,-467 302.5,-473 296.5,-473"/>
<text text-anchor="middle" x="182.5" y="-452.5" font-family="sans" font-size="10.00">functional annotation of proteins and transcripts</text>
</g>
<!-- 6&#45;&gt;5 -->
<g id="edge6" class="edge">
<title>6&#45;&gt;5</title>
<path fill="none" stroke="grey" stroke-width="2" d="M182.5,-436.7C182.5,-428.98 182.5,-419.71 182.5,-411.11"/>
<polygon fill="grey" stroke="grey" stroke-width="2" points="186,-411.1 182.5,-401.1 179,-411.1 186,-411.1"/>
</g>
<!-- 7 -->
<g id="node8" class="node">
<title>7</title>
<path fill="none" stroke="#afd856" stroke-width="2" d="M353,-545C353,-545 12,-545 12,-545 6,-545 0,-539 0,-533 0,-533 0,-521 0,-521 0,-515 6,-509 12,-509 12,-509 353,-509 353,-509 359,-509 365,-515 365,-521 365,-521 365,-533 365,-533 365,-539 359,-545 353,-545"/>
<text text-anchor="middle" x="182.5" y="-524.5" font-family="sans" font-size="10.00">functional annotation of genes using UniProt/Swiss&#45;Prot newest version</text>
</g>
<!-- 7&#45;&gt;6 -->
<g id="edge7" class="edge">
<title>7&#45;&gt;6</title>
<path fill="none" stroke="grey" stroke-width="2" d="M182.5,-508.7C182.5,-500.98 182.5,-491.71 182.5,-483.11"/>
<polygon fill="grey" stroke="grey" stroke-width="2" points="186,-483.1 182.5,-473.1 179,-483.1 186,-483.1"/>
</g>
<!-- 8 -->
<g id="node9" class="node">
<title>8</title>
<path fill="none" stroke="#afd856" stroke-width="2" d="M213,-617C213,-617 152,-617 152,-617 146,-617 140,-611 140,-605 140,-605 140,-593 140,-593 140,-587 146,-581 152,-581 152,-581 213,-581 213,-581 219,-581 225,-587 225,-593 225,-593 225,-605 225,-605 225,-611 219,-617 213,-617"/>
<text text-anchor="middle" x="182.5" y="-596.5" font-family="sans" font-size="10.00">map_data_ids</text>
</g>
<!-- 8&#45;&gt;7 -->
<g id="edge8" class="edge">
<title>8&#45;&gt;7</title>
<path fill="none" stroke="grey" stroke-width="2" d="M182.5,-580.7C182.5,-572.98 182.5,-563.71 182.5,-555.11"/>
<polygon fill="grey" stroke="grey" stroke-width="2" points="186,-555.1 182.5,-545.1 179,-555.1 186,-555.1"/>
</g>
<!-- 9 -->
<g id="node10" class="node">
<title>9</title>
<path fill="none" stroke="#afd856" stroke-width="2" d="M214.5,-689C214.5,-689 150.5,-689 150.5,-689 144.5,-689 138.5,-683 138.5,-677 138.5,-677 138.5,-665 138.5,-665 138.5,-659 144.5,-653 150.5,-653 150.5,-653 214.5,-653 214.5,-653 220.5,-653 226.5,-659 226.5,-665 226.5,-665 226.5,-677 226.5,-677 226.5,-683 220.5,-689 214.5,-689"/>
<text text-anchor="middle" x="182.5" y="-668.5" font-family="sans" font-size="10.00">map_fasta_ids</text>
</g>
<!-- 9&#45;&gt;8 -->
<g id="edge9" class="edge">
<title>9&#45;&gt;8</title>
<path fill="none" stroke="grey" stroke-width="2" d="M182.5,-652.7C182.5,-644.98 182.5,-635.71 182.5,-627.11"/>
<polygon fill="grey" stroke="grey" stroke-width="2" points="186,-627.1 182.5,-617.1 179,-627.1 186,-627.1"/>
</g>
<!-- 10 -->
<g id="node11" class="node">
<title>10</title>
<path fill="none" stroke="#afd856" stroke-width="2" d="M208.5,-761C208.5,-761 156.5,-761 156.5,-761 150.5,-761 144.5,-755 144.5,-749 144.5,-749 144.5,-737 144.5,-737 144.5,-731 150.5,-725 156.5,-725 156.5,-725 208.5,-725 208.5,-725 214.5,-725 220.5,-731 220.5,-737 220.5,-737 220.5,-749 220.5,-749 220.5,-755 214.5,-761 208.5,-761"/>
<text text-anchor="middle" x="182.5" y="-740.5" font-family="sans" font-size="10.00">map_gff_ids</text>
</g>
<!-- 10&#45;&gt;9 -->
<g id="edge10" class="edge">
<title>10&#45;&gt;9</title>
<path fill="none" stroke="grey" stroke-width="2" d="M182.5,-724.7C182.5,-716.98 182.5,-707.71 182.5,-699.11"/>
<polygon fill="grey" stroke="grey" stroke-width="2" points="186,-699.1 182.5,-689.1 179,-699.1 186,-699.1"/>
</g>
<!-- 11 -->
<g id="node12" class="node">
<title>11</title>
<path fill="none" stroke="#afd856" stroke-width="2" d="M297.5,-833C297.5,-833 67.5,-833 67.5,-833 61.5,-833 55.5,-827 55.5,-821 55.5,-821 55.5,-809 55.5,-809 55.5,-803 61.5,-797 67.5,-797 67.5,-797 297.5,-797 297.5,-797 303.5,-797 309.5,-803 309.5,-809 309.5,-809 309.5,-821 309.5,-821 309.5,-827 303.5,-833 297.5,-833"/>
<text text-anchor="middle" x="182.5" y="-812.5" font-family="sans" font-size="10.00">blast MAKER proteins against UniProt/Swiss&#45;Prot</text>
</g>
<!-- 11&#45;&gt;10 -->
<g id="edge11" class="edge">
<title>11&#45;&gt;10</title>
<path fill="none" stroke="grey" stroke-width="2" d="M182.5,-796.7C182.5,-788.98 182.5,-779.71 182.5,-771.11"/>
<polygon fill="grey" stroke="grey" stroke-width="2" points="186,-771.1 182.5,-761.1 179,-771.1 186,-771.1"/>
</g>
<!-- 12 -->
<g id="node13" class="node">
<title>12</title>
<path fill="none" stroke="#afd856" stroke-width="2" d="M300.5,-905C300.5,-905 64.5,-905 64.5,-905 58.5,-905 52.5,-899 52.5,-893 52.5,-893 52.5,-881 52.5,-881 52.5,-875 58.5,-869 64.5,-869 64.5,-869 300.5,-869 300.5,-869 306.5,-869 312.5,-875 312.5,-881 312.5,-881 312.5,-893 312.5,-893 312.5,-899 306.5,-905 300.5,-905"/>
<text text-anchor="middle" x="182.5" y="-884.5" font-family="sans" font-size="10.00">get MAKER gff and protein &amp; transcript FASTA files</text>
</g>
<!-- 12&#45;&gt;11 -->
<g id="edge12" class="edge">
<title>12&#45;&gt;11</title>
<path fill="none" stroke="grey" stroke-width="2" d="M182.5,-868.7C182.5,-860.98 182.5,-851.71 182.5,-843.11"/>
<polygon fill="grey" stroke="grey" stroke-width="2" points="186,-843.1 182.5,-833.1 179,-843.1 186,-843.1"/>
</g>
<!-- 13 -->
<g id="node14" class="node">
<title>13</title>
<path fill="none" stroke="#afd856" stroke-width="2" d="M252.5,-977C252.5,-977 112.5,-977 112.5,-977 106.5,-977 100.5,-971 100.5,-965 100.5,-965 100.5,-953 100.5,-953 100.5,-947 106.5,-941 112.5,-941 112.5,-941 252.5,-941 252.5,-941 258.5,-941 264.5,-947 264.5,-953 264.5,-953 264.5,-965 264.5,-965 264.5,-971 258.5,-977 252.5,-977"/>
<text text-anchor="middle" x="182.5" y="-956.5" font-family="sans" font-size="10.00">run MAKER to reformat output</text>
</g>
<!-- 13&#45;&gt;12 -->
<g id="edge13" class="edge">
<title>13&#45;&gt;12</title>
<path fill="none" stroke="grey" stroke-width="2" d="M182.5,-940.7C182.5,-932.98 182.5,-923.71 182.5,-915.11"/>
<polygon fill="grey" stroke="grey" stroke-width="2" points="186,-915.1 182.5,-905.1 179,-915.1 186,-915.1"/>
</g>
<!-- 14 -->
<g id="node15" class="node">
<title>14</title>
<path fill="none" stroke="#afd856" stroke-width="2" d="M326.5,-1065C326.5,-1065 38.5,-1065 38.5,-1065 32.5,-1065 26.5,-1059 26.5,-1053 26.5,-1053 26.5,-1025 26.5,-1025 26.5,-1019 32.5,-1013 38.5,-1013 38.5,-1013 326.5,-1013 326.5,-1013 332.5,-1013 338.5,-1019 338.5,-1025 338.5,-1025 338.5,-1053 338.5,-1053 338.5,-1059 332.5,-1065 326.5,-1065"/>
<text text-anchor="middle" x="182.5" y="-1053" font-family="sans" font-size="10.00">use GFFRead to add missing gene lines to genemark.gtf file </text>
<text text-anchor="middle" x="182.5" y="-1042" font-family="sans" font-size="10.00">adjust the stop codons </text>
<text text-anchor="middle" x="182.5" y="-1031" font-family="sans" font-size="10.00">remove transcripts with missing start or stop codons</text>
<text text-anchor="middle" x="182.5" y="-1020" font-family="sans" font-size="10.00">sort the output and convert to GFF3 not GTF</text>
</g>
<!-- 14&#45;&gt;13 -->
<g id="edge14" class="edge">
<title>14&#45;&gt;13</title>
<path fill="none" stroke="grey" stroke-width="2" d="M182.5,-1012.89C182.5,-1004.84 182.5,-995.88 182.5,-987.66"/>
<polygon fill="grey" stroke="grey" stroke-width="2" points="186,-987.41 182.5,-977.41 179,-987.41 186,-987.41"/>
</g>
<!-- 15 -->
<g id="node16" class="node">
<title>15</title>
<path fill="none" stroke="#afd856" stroke-width="2" d="M344.5,-1137C344.5,-1137 20.5,-1137 20.5,-1137 14.5,-1137 8.5,-1131 8.5,-1125 8.5,-1125 8.5,-1113 8.5,-1113 8.5,-1107 14.5,-1101 20.5,-1101 20.5,-1101 344.5,-1101 344.5,-1101 350.5,-1101 356.5,-1107 356.5,-1113 356.5,-1113 356.5,-1125 356.5,-1125 356.5,-1131 350.5,-1137 344.5,-1137"/>
<text text-anchor="middle" x="182.5" y="-1116.5" font-family="sans" font-size="10.00">concatenate the augustus and genemark predictions from BRAKER2</text>
</g>
<!-- 15&#45;&gt;14 -->
<g id="edge15" class="edge">
<title>15&#45;&gt;14</title>
<path fill="none" stroke="grey" stroke-width="2" d="M182.5,-1100.69C182.5,-1093.21 182.5,-1084.16 182.5,-1075.36"/>
<polygon fill="grey" stroke="grey" stroke-width="2" points="186,-1075.26 182.5,-1065.26 179,-1075.26 186,-1075.26"/>
</g>
<!-- 16 -->
<g id="node17" class="node">
<title>16</title>
<path fill="none" stroke="#afd856" stroke-width="2" d="M342,-1209C342,-1209 23,-1209 23,-1209 17,-1209 11,-1203 11,-1197 11,-1197 11,-1185 11,-1185 11,-1179 17,-1173 23,-1173 23,-1173 342,-1173 342,-1173 348,-1173 354,-1179 354,-1185 354,-1185 354,-1197 354,-1197 354,-1203 348,-1209 342,-1209"/>
<text text-anchor="middle" x="182.5" y="-1188.5" font-family="sans" font-size="10.00">convert the Augustus hints to MAKER compatible input for proteins</text>
</g>
<!-- 16&#45;&gt;15 -->
<g id="edge16" class="edge">
<title>16&#45;&gt;15</title>
<path fill="none" stroke="grey" stroke-width="2" d="M182.5,-1172.7C182.5,-1164.98 182.5,-1155.71 182.5,-1147.11"/>
<polygon fill="grey" stroke="grey" stroke-width="2" points="186,-1147.1 182.5,-1137.1 179,-1147.1 186,-1147.1"/>
</g>
<!-- 17 -->
<g id="node18" class="node">
<title>17</title>
<path fill="none" stroke="#afd856" stroke-width="2" d="M251,-1281C251,-1281 114,-1281 114,-1281 108,-1281 102,-1275 102,-1269 102,-1269 102,-1257 102,-1257 102,-1251 108,-1245 114,-1245 114,-1245 251,-1245 251,-1245 257,-1245 263,-1251 263,-1257 263,-1257 263,-1269 263,-1269 263,-1275 257,-1281 251,-1281"/>
<text text-anchor="middle" x="182.5" y="-1260.5" font-family="sans" font-size="10.00">run BRAKER2 in protein mode</text>
</g>
<!-- 17&#45;&gt;16 -->
<g id="edge17" class="edge">
<title>17&#45;&gt;16</title>
<path fill="none" stroke="grey" stroke-width="2" d="M182.5,-1244.7C182.5,-1236.98 182.5,-1227.71 182.5,-1219.11"/>
<polygon fill="grey" stroke="grey" stroke-width="2" points="186,-1219.1 182.5,-1209.1 179,-1219.1 186,-1219.1"/>
</g>
<!-- 18 -->
<g id="node19" class="node">
<title>18</title>
<path fill="none" stroke="#afd856" stroke-width="2" d="M327.5,-1353C327.5,-1353 37.5,-1353 37.5,-1353 31.5,-1353 25.5,-1347 25.5,-1341 25.5,-1341 25.5,-1329 25.5,-1329 25.5,-1323 31.5,-1317 37.5,-1317 37.5,-1317 327.5,-1317 327.5,-1317 333.5,-1317 339.5,-1323 339.5,-1329 339.5,-1329 339.5,-1341 339.5,-1341 339.5,-1347 333.5,-1353 327.5,-1353"/>
<text text-anchor="middle" x="182.5" y="-1332.5" font-family="sans" font-size="10.00">run RepeatMasker using custom repeat libs to mask genome</text>
</g>
<!-- 18&#45;&gt;17 -->
<g id="edge18" class="edge">
<title>18&#45;&gt;17</title>
<path fill="none" stroke="grey" stroke-width="2" d="M182.5,-1316.7C182.5,-1308.98 182.5,-1299.71 182.5,-1291.11"/>
<polygon fill="grey" stroke="grey" stroke-width="2" points="186,-1291.1 182.5,-1281.1 179,-1291.1 186,-1291.1"/>
</g>
<!-- 19 -->
<g id="node20" class="node">
<title>19</title>
<path fill="none" stroke="#afd856" stroke-width="2" d="M338,-1425C338,-1425 27,-1425 27,-1425 21,-1425 15,-1419 15,-1413 15,-1413 15,-1401 15,-1401 15,-1395 21,-1389 27,-1389 27,-1389 338,-1389 338,-1389 344,-1389 350,-1395 350,-1401 350,-1401 350,-1413 350,-1413 350,-1419 344,-1425 338,-1425"/>
<text text-anchor="middle" x="182.5" y="-1410" font-family="sans" font-size="10.00">run blastx then ProtExcluder to excluce known protein sequences</text>
<text text-anchor="middle" x="182.5" y="-1399" font-family="sans" font-size="10.00"> from RepeatModeler library</text>
</g>
<!-- 19&#45;&gt;18 -->
<g id="edge19" class="edge">
<title>19&#45;&gt;18</title>
<path fill="none" stroke="grey" stroke-width="2" d="M182.5,-1388.7C182.5,-1380.98 182.5,-1371.71 182.5,-1363.11"/>
<polygon fill="grey" stroke="grey" stroke-width="2" points="186,-1363.1 182.5,-1353.1 179,-1363.1 186,-1363.1"/>
</g>
<!-- 20 -->
<g id="node21" class="node">
<title>20</title>
<path fill="none" stroke="#afd856" stroke-width="2" d="M293.5,-1497C293.5,-1497 71.5,-1497 71.5,-1497 65.5,-1497 59.5,-1491 59.5,-1485 59.5,-1485 59.5,-1473 59.5,-1473 59.5,-1467 65.5,-1461 71.5,-1461 71.5,-1461 293.5,-1461 293.5,-1461 299.5,-1461 305.5,-1467 305.5,-1473 305.5,-1473 305.5,-1485 305.5,-1485 305.5,-1491 299.5,-1497 293.5,-1497"/>
<text text-anchor="middle" x="182.5" y="-1476.5" font-family="sans" font-size="10.00">run RepeatModeler to make custom repeat libs</text>
</g>
<!-- 20&#45;&gt;19 -->
<g id="edge20" class="edge">
<title>20&#45;&gt;19</title>
<path fill="none" stroke="grey" stroke-width="2" d="M182.5,-1460.7C182.5,-1452.98 182.5,-1443.71 182.5,-1435.11"/>
<polygon fill="grey" stroke="grey" stroke-width="2" points="186,-1435.1 182.5,-1425.1 179,-1435.1 186,-1435.1"/>
</g>
<!-- 21 -->
<g id="node22" class="node">
<title>21</title>
<path fill="none" stroke="#afd856" stroke-width="2" d="M280,-1569C280,-1569 85,-1569 85,-1569 79,-1569 73,-1563 73,-1557 73,-1557 73,-1545 73,-1545 73,-1539 79,-1533 85,-1533 85,-1533 280,-1533 280,-1533 286,-1533 292,-1539 292,-1545 292,-1545 292,-1557 292,-1557 292,-1563 286,-1569 280,-1569"/>
<text text-anchor="middle" x="182.5" y="-1554" font-family="sans" font-size="10.00">get Orthodb 10 Proteins for species/group</text>
<text text-anchor="middle" x="182.5" y="-1543" font-family="sans" font-size="10.00">Here get vertebrata for this bird</text>
</g>
<!-- 21&#45;&gt;20 -->
<g id="edge21" class="edge">
<title>21&#45;&gt;20</title>
<path fill="none" stroke="grey" stroke-width="2" d="M182.5,-1532.7C182.5,-1524.98 182.5,-1515.71 182.5,-1507.11"/>
<polygon fill="grey" stroke="grey" stroke-width="2" points="186,-1507.1 182.5,-1497.1 179,-1507.1 186,-1507.1"/>
</g>
</g>
</svg>
