<?xml version="1.0" encoding="UTF-8" standalone="no"?>
<!DOCTYPE svg PUBLIC "-//W3C//DTD SVG 1.1//EN"
 "http://www.w3.org/Graphics/SVG/1.1/DTD/svg11.dtd">
<!-- Generated by graphviz version 2.43.0 (0)
 -->
<!-- Title: snakemake_dag Pages: 1 -->
<svg width="552pt" height="502pt"
 viewBox="0.00 0.00 551.50 502.00" xmlns="http://www.w3.org/2000/svg" xmlns:xlink="http://www.w3.org/1999/xlink">
<g id="graph0" class="graph" transform="scale(1 1) rotate(0) translate(4 498)">
<title>snakemake_dag</title>
<polygon fill="white" stroke="transparent" points="-4,4 -4,-498 547.5,-498 547.5,4 -4,4"/>
<!-- 0 -->
<g id="node1" class="node">
<title>0</title>
<path fill="none" stroke="#56a2d8" stroke-width="2" d="M202,-36C202,-36 172,-36 172,-36 166,-36 160,-30 160,-24 160,-24 160,-12 160,-12 160,-6 166,0 172,0 172,0 202,0 202,0 208,0 214,-6 214,-12 214,-12 214,-24 214,-24 214,-30 208,-36 202,-36"/>
<text text-anchor="middle" x="187" y="-15.5" font-family="sans" font-size="10.00">all</text>
</g>
<!-- 1 -->
<g id="node2" class="node">
<title>1</title>
<path fill="none" stroke="#d8a456" stroke-width="2" d="M362,-124C362,-124 12,-124 12,-124 6,-124 0,-118 0,-112 0,-112 0,-84 0,-84 0,-78 6,-72 12,-72 12,-72 362,-72 362,-72 368,-72 374,-78 374,-84 374,-84 374,-112 374,-112 374,-118 368,-124 362,-124"/>
<text text-anchor="middle" x="187" y="-112" font-family="sans" font-size="10.00">use seal.sh from BBMap/BBTools https://sourceforge.net/projects/bbmap/ </text>
<text text-anchor="middle" x="187" y="-101" font-family="sans" font-size="10.00">to remove reads that have </text>
<text text-anchor="middle" x="187" y="-90" font-family="sans" font-size="10.00">50% 31&#45;mers matching contamination reference </text>
<text text-anchor="middle" x="187" y="-79" font-family="sans" font-size="10.00">seal.sh seems to be more accurate than kraken2</text>
</g>
<!-- 1&#45;&gt;0 -->
<g id="edge1" class="edge">
<title>1&#45;&gt;0</title>
<path fill="none" stroke="grey" stroke-width="2" d="M187,-71.89C187,-63.84 187,-54.88 187,-46.66"/>
<polygon fill="grey" stroke="grey" stroke-width="2" points="190.5,-46.41 187,-36.41 183.5,-46.41 190.5,-46.41"/>
</g>
<!-- 2 -->
<g id="node3" class="node">
<title>2</title>
<path fill="none" stroke="#78d856" stroke-width="2" d="M367,-494C367,-494 77,-494 77,-494 71,-494 65,-488 65,-482 65,-482 65,-465 65,-465 65,-459 71,-453 77,-453 77,-453 367,-453 367,-453 373,-453 379,-459 379,-465 379,-465 379,-482 379,-482 379,-488 373,-494 367,-494"/>
<text text-anchor="middle" x="222" y="-482" font-family="sans" font-size="10.00">remove left over SMRTbell adapters </text>
<text text-anchor="middle" x="222" y="-471" font-family="sans" font-size="10.00">and removed inverted repeats with icecreamfinder.sh </text>
<text text-anchor="middle" x="222" y="-460" font-family="sans" font-size="10.00">from BBMap/BBTools https://sourceforge.net/projects/bbmap/</text>
</g>
<!-- 2&#45;&gt;1 -->
<g id="edge2" class="edge">
<title>2&#45;&gt;1</title>
<path fill="none" stroke="grey" stroke-width="2" d="M169.73,-452.92C153.12,-444.28 136.19,-432.5 125,-417 100.05,-382.44 106,-365.62 106,-323 106,-323 106,-323 106,-249 106,-204.69 133.71,-160.9 156.71,-132.18"/>
<polygon fill="grey" stroke="grey" stroke-width="2" points="159.69,-134.07 163.35,-124.13 154.29,-129.62 159.69,-134.07"/>
</g>
<!-- 6 -->
<g id="node7" class="node">
<title>6</title>
<path fill="none" stroke="#d85656" stroke-width="2" d="M531.5,-417C531.5,-417 146.5,-417 146.5,-417 140.5,-417 134.5,-411 134.5,-405 134.5,-405 134.5,-388 134.5,-388 134.5,-382 140.5,-376 146.5,-376 146.5,-376 531.5,-376 531.5,-376 537.5,-376 543.5,-382 543.5,-388 543.5,-388 543.5,-405 543.5,-405 543.5,-411 537.5,-417 531.5,-417"/>
<text text-anchor="middle" x="339" y="-405" font-family="sans" font-size="10.00">use sendsketch.sh from BBMap/BBTools https://sourceforge.net/projects/bbmap/ </text>
<text text-anchor="middle" x="339" y="-394" font-family="sans" font-size="10.00">to make a &#39;sketch&#39; of the reads </text>
<text text-anchor="middle" x="339" y="-383" font-family="sans" font-size="10.00">with some contamination showing up as matches to the sketch</text>
</g>
<!-- 2&#45;&gt;6 -->
<g id="edge7" class="edge">
<title>2&#45;&gt;6</title>
<path fill="none" stroke="grey" stroke-width="2" d="M252.43,-452.99C266.81,-443.77 284.15,-432.66 299.52,-422.81"/>
<polygon fill="grey" stroke="grey" stroke-width="2" points="301.78,-425.52 308.31,-417.17 298,-419.62 301.78,-425.52"/>
</g>
<!-- 3 -->
<g id="node4" class="node">
<title>3</title>
<path fill="none" stroke="#56d87b" stroke-width="2" d="M422,-196C422,-196 176,-196 176,-196 170,-196 164,-190 164,-184 164,-184 164,-172 164,-172 164,-166 170,-160 176,-160 176,-160 422,-160 422,-160 428,-160 434,-166 434,-172 434,-172 434,-184 434,-184 434,-190 428,-196 422,-196"/>
<text text-anchor="middle" x="299" y="-181" font-family="sans" font-size="10.00">use download links to get contamination references</text>
<text text-anchor="middle" x="299" y="-170" font-family="sans" font-size="10.00">run dustmasker on each reference</text>
</g>
<!-- 3&#45;&gt;1 -->
<g id="edge3" class="edge">
<title>3&#45;&gt;1</title>
<path fill="none" stroke="grey" stroke-width="2" d="M274.42,-159.88C261.83,-151.11 246.09,-140.15 231.46,-129.96"/>
<polygon fill="grey" stroke="grey" stroke-width="2" points="233.21,-126.92 223,-124.07 229.21,-132.66 233.21,-126.92"/>
</g>
<!-- 4 -->
<g id="node5" class="node">
<title>4</title>
<path fill="none" stroke="#c6d856" stroke-width="2" d="M505.5,-268C505.5,-268 154.5,-268 154.5,-268 148.5,-268 142.5,-262 142.5,-256 142.5,-256 142.5,-244 142.5,-244 142.5,-238 148.5,-232 154.5,-232 154.5,-232 505.5,-232 505.5,-232 511.5,-232 517.5,-238 517.5,-244 517.5,-244 517.5,-256 517.5,-256 517.5,-262 511.5,-268 505.5,-268"/>
<text text-anchor="middle" x="330" y="-247.5" font-family="sans" font-size="10.00">use NCBI Datasets and taxon ids to get links to contamination references</text>
</g>
<!-- 4&#45;&gt;3 -->
<g id="edge4" class="edge">
<title>4&#45;&gt;3</title>
<path fill="none" stroke="grey" stroke-width="2" d="M322.34,-231.7C318.81,-223.73 314.54,-214.1 310.63,-205.26"/>
<polygon fill="grey" stroke="grey" stroke-width="2" points="313.82,-203.83 306.57,-196.1 307.42,-206.67 313.82,-203.83"/>
</g>
<!-- 5 -->
<g id="node6" class="node">
<title>5</title>
<path fill="none" stroke="#56d8c9" stroke-width="2" d="M480,-340C480,-340 188,-340 188,-340 182,-340 176,-334 176,-328 176,-328 176,-316 176,-316 176,-310 182,-304 188,-304 188,-304 480,-304 480,-304 486,-304 492,-310 492,-316 492,-316 492,-328 492,-328 492,-334 486,-340 480,-340"/>
<text text-anchor="middle" x="334" y="-325" font-family="sans" font-size="10.00">get taxon ids from sendsketch output </text>
<text text-anchor="middle" x="334" y="-314" font-family="sans" font-size="10.00">with genomes &lt; 35 Mbp as potential bacterial contamination</text>
</g>
<!-- 5&#45;&gt;4 -->
<g id="edge5" class="edge">
<title>5&#45;&gt;4</title>
<path fill="none" stroke="grey" stroke-width="2" d="M333.01,-303.7C332.57,-295.98 332.04,-286.71 331.55,-278.11"/>
<polygon fill="grey" stroke="grey" stroke-width="2" points="335.04,-277.89 330.98,-268.1 328.05,-278.29 335.04,-277.89"/>
</g>
<!-- 6&#45;&gt;5 -->
<g id="edge6" class="edge">
<title>6&#45;&gt;5</title>
<path fill="none" stroke="grey" stroke-width="2" d="M337.63,-375.69C337.1,-367.91 336.47,-358.84 335.89,-350.45"/>
<polygon fill="grey" stroke="grey" stroke-width="2" points="339.37,-350.05 335.19,-340.32 332.39,-350.54 339.37,-350.05"/>
</g>
</g>
</svg>
