<?xml version="1.0" encoding="UTF-8" standalone="no"?>
<!DOCTYPE svg PUBLIC "-//W3C//DTD SVG 1.1//EN"
 "http://www.w3.org/Graphics/SVG/1.1/DTD/svg11.dtd">
<!-- Generated by graphviz version 2.43.0 (0)
 -->
<!-- Title: snakemake_dag Pages: 1 -->
<svg width="218pt" height="188pt"
 viewBox="0.00 0.00 218.00 188.00" xmlns="http://www.w3.org/2000/svg" xmlns:xlink="http://www.w3.org/1999/xlink">
<g id="graph0" class="graph" transform="scale(1 1) rotate(0) translate(4 184)">
<title>snakemake_dag</title>
<polygon fill="white" stroke="transparent" points="-4,4 -4,-184 214,-184 214,4 -4,4"/>
<!-- 0 -->
<g id="node1" class="node">
<title>0</title>
<path fill="none" stroke="#d85656" stroke-width="2" d="M120,-36C120,-36 90,-36 90,-36 84,-36 78,-30 78,-24 78,-24 78,-12 78,-12 78,-6 84,0 90,0 90,0 120,0 120,0 126,0 132,-6 132,-12 132,-12 132,-24 132,-24 132,-30 126,-36 120,-36"/>
<text text-anchor="middle" x="105" y="-15.5" font-family="sans" font-size="10.00">all</text>
</g>
<!-- 1 -->
<g id="node2" class="node">
<title>1</title>
<path fill="none" stroke="#afd856" stroke-width="2" d="M127,-108C127,-108 83,-108 83,-108 77,-108 71,-102 71,-96 71,-96 71,-84 71,-84 71,-78 77,-72 83,-72 83,-72 127,-72 127,-72 133,-72 139,-78 139,-84 139,-84 139,-96 139,-96 139,-102 133,-108 127,-108"/>
<text text-anchor="middle" x="105" y="-87.5" font-family="sans" font-size="10.00">merquryfk</text>
</g>
<!-- 1&#45;&gt;0 -->
<g id="edge1" class="edge">
<title>1&#45;&gt;0</title>
<path fill="none" stroke="grey" stroke-width="2" d="M105,-71.7C105,-63.98 105,-54.71 105,-46.11"/>
<polygon fill="grey" stroke="grey" stroke-width="2" points="108.5,-46.1 105,-36.1 101.5,-46.1 108.5,-46.1"/>
</g>
<!-- 2 -->
<g id="node3" class="node">
<title>2</title>
<path fill="none" stroke="#56d8a9" stroke-width="2" d="M198,-180C198,-180 12,-180 12,-180 6,-180 0,-174 0,-168 0,-168 0,-156 0,-156 0,-150 6,-144 12,-144 12,-144 198,-144 198,-144 204,-144 210,-150 210,-156 210,-156 210,-168 210,-168 210,-174 204,-180 198,-180"/>
<text text-anchor="middle" x="105" y="-165" font-family="sans" font-size="10.00">fastk</text>
<text text-anchor="middle" x="105" y="-154" font-family="sans" font-size="10.00">id: HiFi&#45;reads&#45;rm&#45;icecream&#45;rm&#45;contam5</text>
</g>
<!-- 2&#45;&gt;1 -->
<g id="edge2" class="edge">
<title>2&#45;&gt;1</title>
<path fill="none" stroke="grey" stroke-width="2" d="M105,-143.7C105,-135.98 105,-126.71 105,-118.11"/>
<polygon fill="grey" stroke="grey" stroke-width="2" points="108.5,-118.1 105,-108.1 101.5,-118.1 108.5,-118.1"/>
</g>
</g>
</svg>
