<?xml version="1.0" encoding="UTF-8" standalone="no"?>
<!DOCTYPE svg PUBLIC "-//W3C//DTD SVG 1.1//EN"
 "http://www.w3.org/Graphics/SVG/1.1/DTD/svg11.dtd">
<!-- Generated by graphviz version 2.43.0 (0)
 -->
<!-- Title: snakemake_dag Pages: 1 -->
<svg width="343pt" height="188pt"
 viewBox="0.00 0.00 343.00 188.00" xmlns="http://www.w3.org/2000/svg" xmlns:xlink="http://www.w3.org/1999/xlink">
<g id="graph0" class="graph" transform="scale(1 1) rotate(0) translate(4 184)">
<title>snakemake_dag</title>
<polygon fill="white" stroke="transparent" points="-4,4 -4,-184 339,-184 339,4 -4,4"/>
<!-- 0 -->
<g id="node1" class="node">
<title>0</title>
<path fill="none" stroke="#afd856" stroke-width="2" d="M281,-36C281,-36 54,-36 54,-36 48,-36 42,-30 42,-24 42,-24 42,-12 42,-12 42,-6 48,0 54,0 54,0 281,0 281,0 287,0 293,-6 293,-12 293,-12 293,-24 293,-24 293,-30 287,-36 281,-36"/>
<text text-anchor="middle" x="167.5" y="-15.5" font-family="sans" font-size="10.00">ready to evaluate quality value of assembly,etc</text>
</g>
<!-- 1 -->
<g id="node2" class="node">
<title>1</title>
<path fill="none" stroke="#d85656" stroke-width="2" d="M323,-108C323,-108 12,-108 12,-108 6,-108 0,-102 0,-96 0,-96 0,-84 0,-84 0,-78 6,-72 12,-72 12,-72 323,-72 323,-72 329,-72 335,-78 335,-84 335,-84 335,-96 335,-96 335,-102 329,-108 323,-108"/>
<text text-anchor="middle" x="167.5" y="-87.5" font-family="sans" font-size="10.00">run MerquryFK with counted 56&#45;mers and purged primary contigs</text>
</g>
<!-- 1&#45;&gt;0 -->
<g id="edge1" class="edge">
<title>1&#45;&gt;0</title>
<path fill="none" stroke="grey" stroke-width="2" d="M167.5,-71.7C167.5,-63.98 167.5,-54.71 167.5,-46.11"/>
<polygon fill="grey" stroke="grey" stroke-width="2" points="171,-46.1 167.5,-36.1 164,-46.1 171,-46.1"/>
</g>
<!-- 2 -->
<g id="node3" class="node">
<title>2</title>
<path fill="none" stroke="#56d8a9" stroke-width="2" d="M299,-180C299,-180 36,-180 36,-180 30,-180 24,-174 24,-168 24,-168 24,-156 24,-156 24,-150 30,-144 36,-144 36,-144 299,-144 299,-144 305,-144 311,-150 311,-156 311,-156 311,-168 311,-168 311,-174 305,-180 299,-180"/>
<text text-anchor="middle" x="167.5" y="-159.5" font-family="sans" font-size="10.00">count 56&#45;mers from 3x error&#45;corrected reads with FastK</text>
</g>
<!-- 2&#45;&gt;1 -->
<g id="edge2" class="edge">
<title>2&#45;&gt;1</title>
<path fill="none" stroke="grey" stroke-width="2" d="M167.5,-143.7C167.5,-135.98 167.5,-126.71 167.5,-118.11"/>
<polygon fill="grey" stroke="grey" stroke-width="2" points="171,-118.1 167.5,-108.1 164,-118.1 171,-118.1"/>
</g>
</g>
</svg>
