<?xml version="1.0" encoding="UTF-8" standalone="no"?>
<!DOCTYPE svg PUBLIC "-//W3C//DTD SVG 1.1//EN"
 "http://www.w3.org/Graphics/SVG/1.1/DTD/svg11.dtd">
<!-- Generated by graphviz version 2.43.0 (0)
 -->
<!-- Title: snakemake_dag Pages: 1 -->
<svg width="368pt" height="404pt"
 viewBox="0.00 0.00 368.00 404.00" xmlns="http://www.w3.org/2000/svg" xmlns:xlink="http://www.w3.org/1999/xlink">
<g id="graph0" class="graph" transform="scale(1 1) rotate(0) translate(4 400)">
<title>snakemake_dag</title>
<polygon fill="white" stroke="transparent" points="-4,4 -4,-400 364,-400 364,4 -4,4"/>
<!-- 0 -->
<g id="node1" class="node">
<title>0</title>
<path fill="none" stroke="#d6d856" stroke-width="2" stroke-dasharray="5,2" d="M175,-36C175,-36 145,-36 145,-36 139,-36 133,-30 133,-24 133,-24 133,-12 133,-12 133,-6 139,0 145,0 145,0 175,0 175,0 181,0 187,-6 187,-12 187,-12 187,-24 187,-24 187,-30 181,-36 175,-36"/>
<text text-anchor="middle" x="160" y="-15.5" font-family="sans" font-size="10.00">all</text>
</g>
<!-- 1 -->
<g id="node2" class="node">
<title>1</title>
<path fill="none" stroke="#56d8d8" stroke-width="2" stroke-dasharray="5,2" d="M178,-108C178,-108 142,-108 142,-108 136,-108 130,-102 130,-96 130,-96 130,-84 130,-84 130,-78 136,-72 142,-72 142,-72 178,-72 178,-72 184,-72 190,-78 190,-84 190,-84 190,-96 190,-96 190,-102 184,-108 178,-108"/>
<text text-anchor="middle" x="160" y="-87.5" font-family="sans" font-size="10.00">get_seqs</text>
</g>
<!-- 1&#45;&gt;0 -->
<g id="edge1" class="edge">
<title>1&#45;&gt;0</title>
<path fill="none" stroke="grey" stroke-width="2" d="M160,-71.7C160,-63.98 160,-54.71 160,-46.11"/>
<polygon fill="grey" stroke="grey" stroke-width="2" points="163.5,-46.1 160,-36.1 156.5,-46.1 163.5,-46.1"/>
</g>
<!-- 2 -->
<g id="node3" class="node">
<title>2</title>
<path fill="none" stroke="#d89556" stroke-width="2" stroke-dasharray="5,2" d="M184.5,-180C184.5,-180 135.5,-180 135.5,-180 129.5,-180 123.5,-174 123.5,-168 123.5,-168 123.5,-156 123.5,-156 123.5,-150 129.5,-144 135.5,-144 135.5,-144 184.5,-144 184.5,-144 190.5,-144 196.5,-150 196.5,-156 196.5,-156 196.5,-168 196.5,-168 196.5,-174 190.5,-180 184.5,-180"/>
<text text-anchor="middle" x="160" y="-159.5" font-family="sans" font-size="10.00">purge_dups</text>
</g>
<!-- 2&#45;&gt;1 -->
<g id="edge2" class="edge">
<title>2&#45;&gt;1</title>
<path fill="none" stroke="grey" stroke-width="2" d="M160,-143.7C160,-135.98 160,-126.71 160,-118.11"/>
<polygon fill="grey" stroke="grey" stroke-width="2" points="163.5,-118.1 160,-108.1 156.5,-118.1 163.5,-118.1"/>
</g>
<!-- 3 -->
<g id="node4" class="node">
<title>3</title>
<path fill="none" stroke="#56d89a" stroke-width="2" stroke-dasharray="5,2" d="M120,-324C120,-324 90,-324 90,-324 84,-324 78,-318 78,-312 78,-312 78,-300 78,-300 78,-294 84,-288 90,-288 90,-288 120,-288 120,-288 126,-288 132,-294 132,-300 132,-300 132,-312 132,-312 132,-318 126,-324 120,-324"/>
<text text-anchor="middle" x="105" y="-303.5" font-family="sans" font-size="10.00">pbcstat</text>
</g>
<!-- 3&#45;&gt;2 -->
<g id="edge3" class="edge">
<title>3&#45;&gt;2</title>
<path fill="none" stroke="grey" stroke-width="2" d="M106.7,-287.67C108.95,-269.29 113.89,-239.69 124,-216 128.08,-206.43 133.99,-196.78 139.84,-188.39"/>
<polygon fill="grey" stroke="grey" stroke-width="2" points="142.78,-190.29 145.84,-180.15 137.12,-186.17 142.78,-190.29"/>
</g>
<!-- 5 -->
<g id="node6" class="node">
<title>5</title>
<path fill="none" stroke="#59d856" stroke-width="2" stroke-dasharray="5,2" d="M175,-252C175,-252 145,-252 145,-252 139,-252 133,-246 133,-240 133,-240 133,-228 133,-228 133,-222 139,-216 145,-216 145,-216 175,-216 175,-216 181,-216 187,-222 187,-228 187,-228 187,-240 187,-240 187,-246 181,-252 175,-252"/>
<text text-anchor="middle" x="160" y="-231.5" font-family="sans" font-size="10.00">calcuts</text>
</g>
<!-- 3&#45;&gt;5 -->
<g id="edge7" class="edge">
<title>3&#45;&gt;5</title>
<path fill="none" stroke="grey" stroke-width="2" d="M118.6,-287.7C125.12,-279.39 133.07,-269.28 140.25,-260.14"/>
<polygon fill="grey" stroke="grey" stroke-width="2" points="143.13,-262.13 146.56,-252.1 137.63,-257.81 143.13,-262.13"/>
</g>
<!-- 4 -->
<g id="node5" class="node">
<title>4</title>
<path fill="none" stroke="#d85656" stroke-width="2" stroke-dasharray="5,2" d="M198,-396C198,-396 12,-396 12,-396 6,-396 0,-390 0,-384 0,-384 0,-372 0,-372 0,-366 6,-360 12,-360 12,-360 198,-360 198,-360 204,-360 210,-366 210,-372 210,-372 210,-384 210,-384 210,-390 204,-396 198,-396"/>
<text text-anchor="middle" x="105" y="-381" font-family="sans" font-size="10.00">minimap2_reads</text>
<text text-anchor="middle" x="105" y="-370" font-family="sans" font-size="10.00">id: HiFi&#45;reads&#45;rm&#45;icecream&#45;rm&#45;contam5</text>
</g>
<!-- 4&#45;&gt;3 -->
<g id="edge6" class="edge">
<title>4&#45;&gt;3</title>
<path fill="none" stroke="grey" stroke-width="2" d="M105,-359.7C105,-351.98 105,-342.71 105,-334.11"/>
<polygon fill="grey" stroke="grey" stroke-width="2" points="108.5,-334.1 105,-324.1 101.5,-334.1 108.5,-334.1"/>
</g>
<!-- 5&#45;&gt;2 -->
<g id="edge4" class="edge">
<title>5&#45;&gt;2</title>
<path fill="none" stroke="grey" stroke-width="2" d="M160,-215.7C160,-207.98 160,-198.71 160,-190.11"/>
<polygon fill="grey" stroke="grey" stroke-width="2" points="163.5,-190.1 160,-180.1 156.5,-190.1 163.5,-190.1"/>
</g>
<!-- 6 -->
<g id="node7" class="node">
<title>6</title>
<path fill="none" stroke="#569ad8" stroke-width="2" stroke-dasharray="5,2" d="M281.5,-252C281.5,-252 220.5,-252 220.5,-252 214.5,-252 208.5,-246 208.5,-240 208.5,-240 208.5,-228 208.5,-228 208.5,-222 214.5,-216 220.5,-216 220.5,-216 281.5,-216 281.5,-216 287.5,-216 293.5,-222 293.5,-228 293.5,-228 293.5,-240 293.5,-240 293.5,-246 287.5,-252 281.5,-252"/>
<text text-anchor="middle" x="251" y="-231.5" font-family="sans" font-size="10.00">minimap2_ref</text>
</g>
<!-- 6&#45;&gt;2 -->
<g id="edge5" class="edge">
<title>6&#45;&gt;2</title>
<path fill="none" stroke="grey" stroke-width="2" d="M228.51,-215.7C217.04,-206.88 202.94,-196.03 190.52,-186.47"/>
<polygon fill="grey" stroke="grey" stroke-width="2" points="192.3,-183.43 182.24,-180.1 188.03,-188.98 192.3,-183.43"/>
</g>
<!-- 7 -->
<g id="node8" class="node">
<title>7</title>
<path fill="none" stroke="#97d856" stroke-width="2" stroke-dasharray="5,2" d="M348,-324C348,-324 162,-324 162,-324 156,-324 150,-318 150,-312 150,-312 150,-300 150,-300 150,-294 156,-288 162,-288 162,-288 348,-288 348,-288 354,-288 360,-294 360,-300 360,-300 360,-312 360,-312 360,-318 354,-324 348,-324"/>
<text text-anchor="middle" x="255" y="-309" font-family="sans" font-size="10.00">split_fa</text>
<text text-anchor="middle" x="255" y="-298" font-family="sans" font-size="10.00">id: HiFi&#45;reads&#45;rm&#45;icecream&#45;rm&#45;contam5</text>
</g>
<!-- 7&#45;&gt;6 -->
<g id="edge8" class="edge">
<title>7&#45;&gt;6</title>
<path fill="none" stroke="grey" stroke-width="2" d="M254.01,-287.7C253.57,-279.98 253.04,-270.71 252.55,-262.11"/>
<polygon fill="grey" stroke="grey" stroke-width="2" points="256.04,-261.89 251.98,-252.1 249.05,-262.29 256.04,-261.89"/>
</g>
</g>
</svg>
