<?xml version="1.0" encoding="UTF-8" standalone="no"?>
<!DOCTYPE svg PUBLIC "-//W3C//DTD SVG 1.1//EN"
 "http://www.w3.org/Graphics/SVG/1.1/DTD/svg11.dtd">
<!-- Generated by graphviz version 2.43.0 (0)
 -->
<!-- Title: snakemake_dag Pages: 1 -->
<svg width="459pt" height="404pt"
 viewBox="0.00 0.00 458.50 404.00" xmlns="http://www.w3.org/2000/svg" xmlns:xlink="http://www.w3.org/1999/xlink">
<g id="graph0" class="graph" transform="scale(1 1) rotate(0) translate(4 400)">
<title>snakemake_dag</title>
<polygon fill="white" stroke="transparent" points="-4,4 -4,-400 454.5,-400 454.5,4 -4,4"/>
<!-- 0 -->
<g id="node1" class="node">
<title>0</title>
<path fill="none" stroke="#59d856" stroke-width="2" d="M238.5,-36C238.5,-36 114.5,-36 114.5,-36 108.5,-36 102.5,-30 102.5,-24 102.5,-24 102.5,-12 102.5,-12 102.5,-6 108.5,0 114.5,0 114.5,0 238.5,0 238.5,0 244.5,0 250.5,-6 250.5,-12 250.5,-12 250.5,-24 250.5,-24 250.5,-30 244.5,-36 238.5,-36"/>
<text text-anchor="middle" x="176.5" y="-15.5" font-family="sans" font-size="10.00">ready for k&#45;mer evaluation</text>
</g>
<!-- 1 -->
<g id="node2" class="node">
<title>1</title>
<path fill="none" stroke="#97d856" stroke-width="2" d="M215,-108C215,-108 138,-108 138,-108 132,-108 126,-102 126,-96 126,-96 126,-84 126,-84 126,-78 132,-72 138,-72 138,-72 215,-72 215,-72 221,-72 227,-78 227,-84 227,-84 227,-96 227,-96 227,-102 221,-108 215,-108"/>
<text text-anchor="middle" x="176.5" y="-87.5" font-family="sans" font-size="10.00">do actual purging</text>
</g>
<!-- 1&#45;&gt;0 -->
<g id="edge1" class="edge">
<title>1&#45;&gt;0</title>
<path fill="none" stroke="grey" stroke-width="2" d="M176.5,-71.7C176.5,-63.98 176.5,-54.71 176.5,-46.11"/>
<polygon fill="grey" stroke="grey" stroke-width="2" points="180,-46.1 176.5,-36.1 173,-46.1 180,-46.1"/>
</g>
<!-- 2 -->
<g id="node3" class="node">
<title>2</title>
<path fill="none" stroke="#56d89a" stroke-width="2" d="M233,-180C233,-180 120,-180 120,-180 114,-180 108,-174 108,-168 108,-168 108,-156 108,-156 108,-150 114,-144 120,-144 120,-144 233,-144 233,-144 239,-144 245,-150 245,-156 245,-156 245,-168 245,-168 245,-174 239,-180 233,-180"/>
<text text-anchor="middle" x="176.5" y="-159.5" font-family="sans" font-size="10.00">predict duplicate regions</text>
</g>
<!-- 2&#45;&gt;1 -->
<g id="edge2" class="edge">
<title>2&#45;&gt;1</title>
<path fill="none" stroke="grey" stroke-width="2" d="M176.5,-143.7C176.5,-135.98 176.5,-126.71 176.5,-118.11"/>
<polygon fill="grey" stroke="grey" stroke-width="2" points="180,-118.1 176.5,-108.1 173,-118.1 180,-118.1"/>
</g>
<!-- 3 -->
<g id="node4" class="node">
<title>3</title>
<path fill="none" stroke="#d85656" stroke-width="2" d="M179.5,-324C179.5,-324 71.5,-324 71.5,-324 65.5,-324 59.5,-318 59.5,-312 59.5,-312 59.5,-300 59.5,-300 59.5,-294 65.5,-288 71.5,-288 71.5,-288 179.5,-288 179.5,-288 185.5,-288 191.5,-294 191.5,-300 191.5,-300 191.5,-312 191.5,-312 191.5,-318 185.5,-324 179.5,-324"/>
<text text-anchor="middle" x="125.5" y="-303.5" font-family="sans" font-size="10.00">compute read coverage</text>
</g>
<!-- 3&#45;&gt;2 -->
<g id="edge3" class="edge">
<title>3&#45;&gt;2</title>
<path fill="none" stroke="grey" stroke-width="2" d="M111.06,-287.93C97.33,-269.5 80.56,-239.62 93.5,-216 100.44,-203.33 111.84,-193.25 124,-185.43"/>
<polygon fill="grey" stroke="grey" stroke-width="2" points="126.12,-188.24 132.94,-180.13 122.55,-182.22 126.12,-188.24"/>
</g>
<!-- 5 -->
<g id="node6" class="node">
<title>5</title>
<path fill="none" stroke="#d89556" stroke-width="2" d="M238.5,-252C238.5,-252 114.5,-252 114.5,-252 108.5,-252 102.5,-246 102.5,-240 102.5,-240 102.5,-228 102.5,-228 102.5,-222 108.5,-216 114.5,-216 114.5,-216 238.5,-216 238.5,-216 244.5,-216 250.5,-222 250.5,-228 250.5,-228 250.5,-240 250.5,-240 250.5,-246 244.5,-252 238.5,-252"/>
<text text-anchor="middle" x="176.5" y="-231.5" font-family="sans" font-size="10.00">compute coverage cut&#45;offs</text>
</g>
<!-- 3&#45;&gt;5 -->
<g id="edge7" class="edge">
<title>3&#45;&gt;5</title>
<path fill="none" stroke="grey" stroke-width="2" d="M138.11,-287.7C144.1,-279.47 151.38,-269.48 157.98,-260.42"/>
<polygon fill="grey" stroke="grey" stroke-width="2" points="160.98,-262.25 164.04,-252.1 155.32,-258.13 160.98,-262.25"/>
</g>
<!-- 4 -->
<g id="node5" class="node">
<title>4</title>
<path fill="none" stroke="#56d8d8" stroke-width="2" d="M239,-396C239,-396 12,-396 12,-396 6,-396 0,-390 0,-384 0,-384 0,-372 0,-372 0,-366 6,-360 12,-360 12,-360 239,-360 239,-360 245,-360 251,-366 251,-372 251,-372 251,-384 251,-384 251,-390 245,-396 239,-396"/>
<text text-anchor="middle" x="125.5" y="-375.5" font-family="sans" font-size="10.00">map 3x error&#45;corrected reads to primary contigs</text>
</g>
<!-- 4&#45;&gt;3 -->
<g id="edge6" class="edge">
<title>4&#45;&gt;3</title>
<path fill="none" stroke="grey" stroke-width="2" d="M125.5,-359.7C125.5,-351.98 125.5,-342.71 125.5,-334.11"/>
<polygon fill="grey" stroke="grey" stroke-width="2" points="129,-334.1 125.5,-324.1 122,-334.1 129,-334.1"/>
</g>
<!-- 5&#45;&gt;2 -->
<g id="edge4" class="edge">
<title>5&#45;&gt;2</title>
<path fill="none" stroke="grey" stroke-width="2" d="M176.5,-215.7C176.5,-207.98 176.5,-198.71 176.5,-190.11"/>
<polygon fill="grey" stroke="grey" stroke-width="2" points="180,-190.1 176.5,-180.1 173,-190.1 180,-190.1"/>
</g>
<!-- 6 -->
<g id="node7" class="node">
<title>6</title>
<path fill="none" stroke="#569ad8" stroke-width="2" d="M438.5,-252C438.5,-252 280.5,-252 280.5,-252 274.5,-252 268.5,-246 268.5,-240 268.5,-240 268.5,-228 268.5,-228 268.5,-222 274.5,-216 280.5,-216 280.5,-216 438.5,-216 438.5,-216 444.5,-216 450.5,-222 450.5,-228 450.5,-228 450.5,-240 450.5,-240 450.5,-246 444.5,-252 438.5,-252"/>
<text text-anchor="middle" x="359.5" y="-231.5" font-family="sans" font-size="10.00">map split primary contigs to itself</text>
</g>
<!-- 6&#45;&gt;2 -->
<g id="edge5" class="edge">
<title>6&#45;&gt;2</title>
<path fill="none" stroke="grey" stroke-width="2" d="M314.73,-215.88C289.38,-206.18 257.49,-193.98 230.73,-183.74"/>
<polygon fill="grey" stroke="grey" stroke-width="2" points="231.71,-180.37 221.12,-180.07 229.21,-186.91 231.71,-180.37"/>
</g>
<!-- 7 -->
<g id="node8" class="node">
<title>7</title>
<path fill="none" stroke="#d6d856" stroke-width="2" d="M406,-324C406,-324 313,-324 313,-324 307,-324 301,-318 301,-312 301,-312 301,-300 301,-300 301,-294 307,-288 313,-288 313,-288 406,-288 406,-288 412,-288 418,-294 418,-300 418,-300 418,-312 418,-312 418,-318 412,-324 406,-324"/>
<text text-anchor="middle" x="359.5" y="-303.5" font-family="sans" font-size="10.00">split primary contigs</text>
</g>
<!-- 7&#45;&gt;6 -->
<g id="edge8" class="edge">
<title>7&#45;&gt;6</title>
<path fill="none" stroke="grey" stroke-width="2" d="M359.5,-287.7C359.5,-279.98 359.5,-270.71 359.5,-262.11"/>
<polygon fill="grey" stroke="grey" stroke-width="2" points="363,-262.1 359.5,-252.1 356,-262.1 363,-262.1"/>
</g>
</g>
</svg>
